<svg width="188" height="188" viewBox="0 0 188 188" fill="none" xmlns="http://www.w3.org/2000/svg">
<path d="M112.017 57.8035C109.047 53.5604 105.75 49.2521 102.943 44.6174C101.866 42.8549 100.985 39.8521 101.801 38.3834C102.65 36.882 105.685 35.7723 107.676 35.9028C114.661 36.3271 121.613 37.1757 128.532 38.2854C131.241 38.7098 132.841 37.9264 134.701 36.2292C140.902 30.4848 147.136 24.7729 153.566 19.3549C155.133 18.0167 158.332 16.6785 159.572 17.3966C161.204 18.3431 162.444 21.3132 162.444 23.4348C162.444 29.2445 161.889 35.0868 161.269 40.8966C160.975 43.5729 160.388 44.291 164.402 45.3354C168.907 46.5104 173.476 47.5223 177.85 49.1216C179.384 49.6764 181.277 51.5695 181.44 53.0382C181.636 54.507 180.297 57.0202 178.959 57.7382C173.476 60.6431 167.797 63.1563 162.052 65.5063C159.866 66.3875 158.756 67.2688 158.429 69.7493C157.157 80.1938 155.622 90.5729 154.154 100.985C154.023 101.899 153.272 108.524 149.421 108.492C147.757 108.492 146.19 108.492 143.84 105.456C137.769 97.0354 131.959 88.4188 126.28 79.7368C124.779 77.4521 123.473 76.6361 120.699 77.3542C114.432 79.0188 108.1 80.4223 101.736 81.6625C100.169 81.9563 97.6884 83.066 96.7093 80.8466C95.8933 79.3778 97.1989 77.5827 98.0801 76.375C102.519 70.2063 107.186 64.1681 112.017 57.8035ZM153.207 49.9375C146.843 48.7299 141 47.5223 135.125 46.5431C134.277 46.3799 133.036 46.8042 132.384 47.3917C128.304 51.1452 124.322 55.0618 120.209 59.0111C122.298 62.1445 123.963 64.9188 125.954 67.4646C126.541 68.2479 128.141 68.9007 129.054 68.6723C136.072 66.8118 143.024 64.7882 149.943 62.6341C150.825 62.3729 151.934 61.2306 152.097 60.382C152.652 57.0854 152.848 53.7236 153.207 49.9375ZM147.332 98.5695C148.638 88.1903 149.813 78.9535 151.053 69.325C144.134 71.3486 137.736 73.2091 130.784 75.2327C136.333 83.066 141.522 90.3771 147.332 98.5695ZM155.851 25.4257C150.139 30.6806 145.243 35.1848 139.76 40.2111C144.95 41.1903 149.323 42.0389 154.056 42.9202C154.643 37.1431 155.166 31.8229 155.851 25.4257ZM125.627 44.5521C119.654 43.7688 114.628 43.0834 108.459 42.2674C111.593 46.5757 114.073 49.9375 116.586 53.3646C119.557 50.4924 122.233 47.8813 125.627 44.5521ZM171.681 53.7236C167.993 52.9729 164.304 52.2223 160.388 51.4389C160.094 54.3438 159.866 56.6938 159.572 59.6966C164.174 57.8035 171.746 54.0174 171.681 53.7236ZM108.002 72.7195C108.166 72.9806 116.129 71.7403 120.34 70.7938C118.708 68.3132 117.402 66.3223 115.868 64.0375C112.996 67.2361 110.516 69.9778 108.002 72.7195Z" fill="#002F6C" fill-opacity="0.06"/>
<path d="M64.6902 142.6C60.6104 140.511 56.5305 138.553 52.5812 136.333C47.6201 133.592 47.4569 129.61 52.5159 127.031C57.8034 124.322 63.3847 122.005 69.0638 120.308C71.9361 119.426 74.8736 117.827 74.8736 117.827C74.8736 117.827 76.6034 114.172 77.0604 112.931C78.9534 107.84 81.434 102.944 83.8493 98.0806C86.493 92.7278 90.6055 92.434 93.7388 97.591C96.2847 101.769 98.2104 106.338 100.593 111.071C106.174 110.092 112.017 109.113 117.859 108.035C120.633 107.546 124.028 106.893 125.007 109.961C125.66 112.017 124.681 115.412 123.212 117.207C119.817 121.45 115.868 125.269 111.821 128.892C109.34 131.111 108.753 132.906 110.058 136.138C112.637 142.633 114.758 149.356 116.651 156.08C117.174 157.908 116.847 160.91 115.672 162.02C114.465 163.13 111.429 163.293 109.634 162.64C102.584 160.062 95.5993 157.157 88.7777 153.958C85.9055 152.62 84.1756 153.044 81.9236 155.035C76.375 159.931 70.7284 164.729 64.8534 169.233C63.3847 170.343 61.0673 171.322 58.9458 170.637C57.0527 170.278 57.5097 166.72 57.934 165.056C59.8923 157.647 62.275 150.401 64.6902 142.6ZM72.6541 139.695C76.1138 141.294 79.084 142.861 82.2173 144.069C83.1638 144.428 84.8284 144.167 85.6444 143.547C89.9527 140.185 94.1305 136.692 98.2104 133.069C98.9611 132.417 99.9076 131.862 99.2875 129.903C98.2756 126.607 96.8395 123.408 95.4361 119.851C90.0506 121.319 84.9263 122.658 79.9 124.224C78.9861 124.518 78.627 124.355 77.6805 126.607C75.8854 130.719 74.4166 135.028 72.6541 139.695ZM90.5402 147.888C96.6111 150.238 102.029 152.326 108.328 154.742C106.142 148.475 104.314 143.318 102.323 137.672C98.3409 141.131 94.7506 144.232 90.5402 147.888ZM81.6951 116.097C85.9055 114.955 89.202 114.041 92.9229 113.029C91.4215 109.276 90.1159 105.947 88.3534 101.573C85.9055 106.926 83.9798 111.103 81.6951 116.097ZM65.9631 158.854C66.159 158.985 74.384 152.816 78.627 149.356C75.7222 147.953 73.3395 146.778 70.6305 145.472C68.9986 150.205 67.4645 154.546 65.9631 158.854ZM105.881 124.812C109.079 121.711 112.31 118.545 115.64 115.347C111.592 116.228 107.512 117.142 103.074 118.088C104.151 120.699 105.097 122.919 105.881 124.812ZM71.0222 126.738C65.8979 128.663 61.9159 130.132 57.0527 131.96C60.8715 133.885 63.809 135.387 67.0402 136.986C68.3132 133.722 69.4555 130.752 71.0222 126.738Z" fill="#002F6C" fill-opacity="0.06"/>
<path d="M54.1481 41.4834C59.9252 39.4925 65.5065 37.3709 71.1856 35.6737C72.8502 35.1841 75.7225 35.1841 76.4079 36.0654C77.9419 38.0237 77.3544 40.2432 76.4731 41.614C72.328 48.1744 67.8891 54.5716 63.2544 60.8057C61.3613 63.3189 60.6433 65.4077 61.6877 68.5737C63.5155 73.9591 64.9843 79.5077 66.1266 85.089C66.5183 86.9821 66.1593 89.9848 64.919 91.0293C63.7113 92.0411 60.7086 91.78 58.9134 91.0619C54.5724 89.3973 50.362 87.2758 46.2822 85.0564C43.6384 83.6202 41.8759 83.914 39.4933 85.9376C35.3481 89.43 30.8113 92.5307 26.2093 95.4355C22.2599 97.9161 19.6815 96.8064 20.0079 92.498C20.2363 90.0175 20.3343 87.3737 20.8238 84.8605C21.3461 82.0536 22.8148 76.048 22.7495 75.4605C18.8002 73.9918 14.5898 72.6862 10.6079 70.8911C8.91064 70.1077 6.62592 68.3126 6.59328 66.9091C6.528 65.1793 8.09467 62.6661 9.69397 61.7196C15.2752 58.4557 30.3544 51.4057 30.3544 51.4057C31.8231 47.4564 33.6509 40.5043 34.9891 36.5223C36.3926 32.4098 37.7961 28.2973 39.2974 24.2501C39.8849 22.6834 41.6148 20.5619 42.8877 20.4966C44.2586 20.4314 46.3801 22.1939 47.0655 23.6626C49.6113 29.3418 51.7002 35.2168 54.1481 41.4834ZM30.3544 71.9355C33.6836 73.3064 36.5231 74.5466 39.428 75.6237C40.1787 75.8848 41.4516 76.0154 41.8759 75.5911C45.4336 72.0008 48.8933 68.28 52.2877 64.5591C52.5815 64.2654 52.6141 63.5147 52.4836 63.0577C51.2759 58.88 50.0356 54.7348 48.7627 50.4591C44.3238 52.3196 40.4724 53.8536 36.719 55.5834C35.6419 56.073 34.369 57.0522 34.0426 58.064C32.6718 62.5029 31.6273 67.0397 30.3544 71.9355ZM58.5544 57.4765C62.7322 52.1237 69.4884 42.2994 69.2273 42.0383C64.7558 43.8987 60.2516 45.7265 55.6169 47.6522C56.5634 50.8182 57.412 53.6577 58.5544 57.4765ZM36.7516 48.5008C40.6683 46.8362 43.7363 45.5633 47.0329 44.1598C45.6294 39.6883 44.3238 35.4452 42.6919 30.2557C40.603 36.6855 38.8079 42.1689 36.7516 48.5008ZM46.9676 79.0508C51.1127 80.9112 54.7683 82.5432 59.0766 84.5015C57.5752 79.6383 56.335 75.6237 54.9641 71.2827C52.1572 73.9918 49.8072 76.2765 46.9676 79.0508ZM27.4169 59.5001C22.7169 61.8175 18.8981 63.7105 14.1002 66.0605C18.3433 67.5619 21.444 68.639 24.6752 69.7487C25.5565 66.3869 26.3398 63.5147 27.4169 59.5001ZM25.8176 87.7654C26.144 87.9939 33.0634 83.555 36.6863 80.7154C33.6183 79.5077 31.3988 78.6591 28.853 77.68C27.7759 81.3029 26.7968 84.5341 25.8176 87.7654Z" fill="#002F6C" fill-opacity="0.06"/>
</svg>
